<svg width="66" height="26" viewBox="0 0 66 26" fill="none" xmlns="http://www.w3.org/2000/svg">
<g filter="url(#filter0_d_2485_15726)">
<rect x="2" y="1" width="62" height="22" rx="11" fill="#22C55E"/>
<path d="M17.56 7.66V16H16.192V12.352H12.268V16H10.9V7.66H12.268V11.236H16.192V7.66H17.56ZM20.7289 8.764V11.212H23.6089V12.328H20.7289V14.884H23.9689V16H19.3609V7.648H23.9689V8.764H20.7289ZM30.6819 14.296H27.1899L26.5899 16H25.1619L28.1499 7.648H29.7339L32.7219 16H31.2819L30.6819 14.296ZM30.2979 13.18L28.9419 9.304L27.5739 13.18H30.2979ZM36.7451 7.66C37.6331 7.66 38.4091 7.832 39.0731 8.176C39.7451 8.512 40.2611 9 40.6211 9.64C40.9891 10.272 41.1731 11.012 41.1731 11.86C41.1731 12.708 40.9891 13.444 40.6211 14.068C40.2611 14.692 39.7451 15.172 39.0731 15.508C38.4091 15.836 37.6331 16 36.7451 16H34.0211V7.66H36.7451ZM36.7451 14.884C37.7211 14.884 38.4691 14.62 38.9891 14.092C39.5091 13.564 39.7691 12.82 39.7691 11.86C39.7691 10.892 39.5091 10.136 38.9891 9.592C38.4691 9.048 37.7211 8.776 36.7451 8.776H35.3891V14.884H36.7451ZM43.8969 8.764V11.212H46.7769V12.328H43.8969V14.884H47.1369V16H42.5289V7.648H47.1369V8.764H43.8969ZM53.1539 16L51.2339 12.664H50.1899V16H48.8219V7.66H51.7019C52.3419 7.66 52.8819 7.772 53.3219 7.996C53.7699 8.22 54.1019 8.52 54.3179 8.896C54.5419 9.272 54.6539 9.692 54.6539 10.156C54.6539 10.7 54.4939 11.196 54.1739 11.644C53.8619 12.084 53.3779 12.384 52.7219 12.544L54.7859 16H53.1539ZM50.1899 11.572H51.7019C52.2139 11.572 52.5979 11.444 52.8539 11.188C53.1179 10.932 53.2499 10.588 53.2499 10.156C53.2499 9.724 53.1219 9.388 52.8659 9.148C52.6099 8.9 52.2219 8.776 51.7019 8.776H50.1899V11.572Z" fill="#DCFCE7"/>
</g>
<defs>
<filter id="filter0_d_2485_15726" x="0" y="0" width="66" height="26" filterUnits="userSpaceOnUse" color-interpolation-filters="sRGB">
<feFlood flood-opacity="0" result="BackgroundImageFix"/>
<feColorMatrix in="SourceAlpha" type="matrix" values="0 0 0 0 0 0 0 0 0 0 0 0 0 0 0 0 0 0 127 0" result="hardAlpha"/>
<feOffset dy="1"/>
<feGaussianBlur stdDeviation="1"/>
<feColorMatrix type="matrix" values="0 0 0 0 0.411765 0 0 0 0 0.317647 0 0 0 0 1 0 0 0 0.05 0"/>
<feBlend mode="normal" in2="BackgroundImageFix" result="effect1_dropShadow_2485_15726"/>
<feBlend mode="normal" in="SourceGraphic" in2="effect1_dropShadow_2485_15726" result="shape"/>
</filter>
</defs>
</svg>
