<svg width="78" height="26" viewBox="0 0 78 26" fill="none" xmlns="http://www.w3.org/2000/svg">
<g filter="url(#filter0_d_2485_16362)">
<rect x="2" y="1" width="74" height="22" rx="11" fill="#DCFCE7"/>
<path d="M15.808 7.66V8.776H12.268V11.236H15.028V12.352H12.268V16H10.9V7.66H15.808ZM18.4438 8.764V11.212H21.3238V12.328H18.4438V14.884H21.6838V16H17.0758V7.648H21.6838V8.764H18.4438ZM28.3968 14.296H24.9048L24.3048 16H22.8768L25.8648 7.648H27.4488L30.4368 16H28.9968L28.3968 14.296ZM28.0128 13.18L26.6568 9.304L25.2888 13.18H28.0128ZM37.1239 7.66V8.776H34.9039V16H33.5359V8.776H31.3039V7.66H37.1239ZM39.8654 7.66V12.976C39.8654 13.608 40.0294 14.084 40.3574 14.404C40.6934 14.724 41.1574 14.884 41.7494 14.884C42.3494 14.884 42.8134 14.724 43.1414 14.404C43.4774 14.084 43.6454 13.608 43.6454 12.976V7.66H45.0134V12.952C45.0134 13.632 44.8654 14.208 44.5694 14.68C44.2734 15.152 43.8774 15.504 43.3814 15.736C42.8854 15.968 42.3374 16.084 41.7374 16.084C41.1374 16.084 40.5894 15.968 40.0934 15.736C39.6054 15.504 39.2174 15.152 38.9294 14.68C38.6414 14.208 38.4974 13.632 38.4974 12.952V7.66H39.8654ZM51.1265 16L49.2065 12.664H48.1625V16H46.7945V7.66H49.6745C50.3145 7.66 50.8545 7.772 51.2945 7.996C51.7425 8.22 52.0745 8.52 52.2905 8.896C52.5145 9.272 52.6265 9.692 52.6265 10.156C52.6265 10.7 52.4665 11.196 52.1465 11.644C51.8345 12.084 51.3505 12.384 50.6945 12.544L52.7585 16H51.1265ZM48.1625 11.572H49.6745C50.1865 11.572 50.5705 11.444 50.8265 11.188C51.0905 10.932 51.2225 10.588 51.2225 10.156C51.2225 9.724 51.0945 9.388 50.8385 9.148C50.5825 8.9 50.1945 8.776 49.6745 8.776H48.1625V11.572ZM55.7446 8.764V11.212H58.6246V12.328H55.7446V14.884H58.9846V16H54.3766V7.648H58.9846V8.764H55.7446ZM63.4175 16.084C62.8575 16.084 62.3535 15.988 61.9055 15.796C61.4575 15.596 61.1055 15.316 60.8495 14.956C60.5935 14.596 60.4655 14.176 60.4655 13.696H61.9295C61.9615 14.056 62.1015 14.352 62.3495 14.584C62.6055 14.816 62.9615 14.932 63.4175 14.932C63.8895 14.932 64.2575 14.82 64.5215 14.596C64.7855 14.364 64.9175 14.068 64.9175 13.708C64.9175 13.428 64.8335 13.2 64.6655 13.024C64.5055 12.848 64.3015 12.712 64.0535 12.616C63.8135 12.52 63.4775 12.416 63.0455 12.304C62.5015 12.16 62.0575 12.016 61.7135 11.872C61.3775 11.72 61.0895 11.488 60.8495 11.176C60.6095 10.864 60.4895 10.448 60.4895 9.928C60.4895 9.448 60.6095 9.028 60.8495 8.668C61.0895 8.308 61.4255 8.032 61.8575 7.84C62.2895 7.648 62.7895 7.552 63.3575 7.552C64.1655 7.552 64.8255 7.756 65.3375 8.164C65.8575 8.564 66.1455 9.116 66.2015 9.82H64.6895C64.6655 9.516 64.5215 9.256 64.2575 9.04C63.9935 8.824 63.6455 8.716 63.2135 8.716C62.8215 8.716 62.5015 8.816 62.2535 9.016C62.0055 9.216 61.8815 9.504 61.8815 9.88C61.8815 10.136 61.9575 10.348 62.1095 10.516C62.2695 10.676 62.4695 10.804 62.7095 10.9C62.9495 10.996 63.2775 11.1 63.6935 11.212C64.2455 11.364 64.6935 11.516 65.0375 11.668C65.3895 11.82 65.6855 12.056 65.9255 12.376C66.1735 12.688 66.2975 13.108 66.2975 13.636C66.2975 14.06 66.1815 14.46 65.9495 14.836C65.7255 15.212 65.3935 15.516 64.9535 15.748C64.5215 15.972 64.0095 16.084 63.4175 16.084Z" fill="#22C55E"/>
</g>
<defs>
<filter id="filter0_d_2485_16362" x="0" y="0" width="78" height="26" filterUnits="userSpaceOnUse" color-interpolation-filters="sRGB">
<feFlood flood-opacity="0" result="BackgroundImageFix"/>
<feColorMatrix in="SourceAlpha" type="matrix" values="0 0 0 0 0 0 0 0 0 0 0 0 0 0 0 0 0 0 127 0" result="hardAlpha"/>
<feOffset dy="1"/>
<feGaussianBlur stdDeviation="1"/>
<feColorMatrix type="matrix" values="0 0 0 0 0.411765 0 0 0 0 0.317647 0 0 0 0 1 0 0 0 0.05 0"/>
<feBlend mode="normal" in2="BackgroundImageFix" result="effect1_dropShadow_2485_16362"/>
<feBlend mode="normal" in="SourceGraphic" in2="effect1_dropShadow_2485_16362" result="shape"/>
</filter>
</defs>
</svg>
