<svg width="69" height="26" viewBox="0 0 69 26" fill="none" xmlns="http://www.w3.org/2000/svg">
<g filter="url(#filter0_d_2485_17180)">
<rect x="2" y="1" width="65" height="22" rx="11" fill="#DCFCE7"/>
<path d="M16.732 10.144C16.732 10.568 16.632 10.968 16.432 11.344C16.232 11.72 15.912 12.028 15.472 12.268C15.032 12.5 14.468 12.616 13.78 12.616H12.268V16H10.9V7.66H13.78C14.42 7.66 14.96 7.772 15.4 7.996C15.848 8.212 16.18 8.508 16.396 8.884C16.62 9.26 16.732 9.68 16.732 10.144ZM13.78 11.5C14.3 11.5 14.688 11.384 14.944 11.152C15.2 10.912 15.328 10.576 15.328 10.144C15.328 9.232 14.812 8.776 13.78 8.776H12.268V11.5H13.78ZM22.3687 16L20.4487 12.664H19.4047V16H18.0367V7.66H20.9167C21.5567 7.66 22.0967 7.772 22.5367 7.996C22.9847 8.22 23.3167 8.52 23.5327 8.896C23.7567 9.272 23.8687 9.692 23.8687 10.156C23.8687 10.7 23.7087 11.196 23.3887 11.644C23.0767 12.084 22.5927 12.384 21.9367 12.544L24.0007 16H22.3687ZM19.4047 11.572H20.9167C21.4287 11.572 21.8127 11.444 22.0687 11.188C22.3327 10.932 22.4647 10.588 22.4647 10.156C22.4647 9.724 22.3367 9.388 22.0807 9.148C21.8247 8.9 21.4367 8.776 20.9167 8.776H19.4047V11.572ZM26.9868 7.66V16H25.6188V7.66H26.9868ZM28.3268 11.812C28.3268 10.996 28.5148 10.264 28.8908 9.616C29.2748 8.968 29.7908 8.464 30.4388 8.104C31.0948 7.736 31.8108 7.552 32.5868 7.552C33.4748 7.552 34.2628 7.772 34.9508 8.212C35.6468 8.644 36.1508 9.26 36.4628 10.06H34.8188C34.6028 9.62 34.3028 9.292 33.9188 9.076C33.5348 8.86 33.0908 8.752 32.5868 8.752C32.0348 8.752 31.5428 8.876 31.1108 9.124C30.6788 9.372 30.3388 9.728 30.0908 10.192C29.8508 10.656 29.7308 11.196 29.7308 11.812C29.7308 12.428 29.8508 12.968 30.0908 13.432C30.3388 13.896 30.6788 14.256 31.1108 14.512C31.5428 14.76 32.0348 14.884 32.5868 14.884C33.0908 14.884 33.5348 14.776 33.9188 14.56C34.3028 14.344 34.6028 14.016 34.8188 13.576H36.4628C36.1508 14.376 35.6468 14.992 34.9508 15.424C34.2628 15.856 33.4748 16.072 32.5868 16.072C31.8028 16.072 31.0868 15.892 30.4388 15.532C29.7908 15.164 29.2748 14.656 28.8908 14.008C28.5148 13.36 28.3268 12.628 28.3268 11.812ZM39.4321 7.66V16H38.0641V7.66H39.4321ZM48.0801 16H46.7121L42.5961 9.772V16H41.2281V7.648H42.5961L46.7121 13.864V7.648H48.0801V16ZM55.9126 10.06C55.6966 9.644 55.3966 9.332 55.0126 9.124C54.6286 8.908 54.1846 8.8 53.6806 8.8C53.1286 8.8 52.6366 8.924 52.2046 9.172C51.7726 9.42 51.4326 9.772 51.1846 10.228C50.9446 10.684 50.8246 11.212 50.8246 11.812C50.8246 12.412 50.9446 12.944 51.1846 13.408C51.4326 13.864 51.7726 14.216 52.2046 14.464C52.6366 14.712 53.1286 14.836 53.6806 14.836C54.4246 14.836 55.0286 14.628 55.4926 14.212C55.9566 13.796 56.2406 13.232 56.3446 12.52H53.2126V11.428H57.8086V12.496C57.7206 13.144 57.4886 13.74 57.1126 14.284C56.7446 14.828 56.2606 15.264 55.6606 15.592C55.0686 15.912 54.4086 16.072 53.6806 16.072C52.8966 16.072 52.1806 15.892 51.5326 15.532C50.8846 15.164 50.3686 14.656 49.9846 14.008C49.6086 13.36 49.4206 12.628 49.4206 11.812C49.4206 10.996 49.6086 10.264 49.9846 9.616C50.3686 8.968 50.8846 8.464 51.5326 8.104C52.1886 7.736 52.9046 7.552 53.6806 7.552C54.5686 7.552 55.3566 7.772 56.0446 8.212C56.7406 8.644 57.2446 9.26 57.5566 10.06H55.9126Z" fill="#22C55E"/>
</g>
<defs>
<filter id="filter0_d_2485_17180" x="0" y="0" width="69" height="26" filterUnits="userSpaceOnUse" color-interpolation-filters="sRGB">
<feFlood flood-opacity="0" result="BackgroundImageFix"/>
<feColorMatrix in="SourceAlpha" type="matrix" values="0 0 0 0 0 0 0 0 0 0 0 0 0 0 0 0 0 0 127 0" result="hardAlpha"/>
<feOffset dy="1"/>
<feGaussianBlur stdDeviation="1"/>
<feColorMatrix type="matrix" values="0 0 0 0 0.411765 0 0 0 0 0.317647 0 0 0 0 1 0 0 0 0.05 0"/>
<feBlend mode="normal" in2="BackgroundImageFix" result="effect1_dropShadow_2485_17180"/>
<feBlend mode="normal" in="SourceGraphic" in2="effect1_dropShadow_2485_17180" result="shape"/>
</filter>
</defs>
</svg>
